<svg width="182" height="40" viewBox="0 0 182 40" fill="none" xmlns="http://www.w3.org/2000/svg">
<path d="M5.19408 9.52382L25.4583 3.85236L24.3851 1.62825C23.683 0.182586 21.9705 -0.41441 20.5606 0.305497L2.41989 9.52382H5.19408Z" fill="#24CCA7"/>
<path d="M31.5166 3.80957C31.2724 3.80957 31.0282 3.84601 30.784 3.91888L26.1552 5.30342L12.0192 9.52386H28.0645H35.0576L34.1917 6.05035C33.8587 4.69617 32.7376 3.80957 31.5166 3.80957Z" fill="#24CCA7"/>
<path d="M35.9497 10.7161H35.4377H34.7414H34.0452H28.7313H9.20522H6.64486H4.48877H4.08899H2.75042C2.04071 10.7161 1.40736 11.0414 0.994104 11.5539C0.805446 11.7901 0.661707 12.0619 0.580853 12.3605C0.531443 12.5477 0.5 12.7438 0.5 12.9443V13.2117V15.7519V37.7716C0.5 39.0016 1.50618 39.9999 2.74593 39.9999H35.9452C37.185 39.9999 38.1912 39.0016 38.1912 37.7716V31.5548H24.8638C22.7572 31.5548 21.0458 29.8568 21.0458 27.7667V25.7256V25.0349V24.3441V22.8111C21.0458 21.7861 21.459 20.8547 22.1283 20.1728C22.7212 19.5667 23.5163 19.1567 24.4057 19.0542C24.5539 19.0364 24.7066 19.0275 24.8593 19.0275H36.3226H37.0188H37.715H38.1912V12.9443C38.1957 11.7143 37.1895 10.7161 35.9497 10.7161Z" fill="#4A56E2"/>
<path d="M39.7679 21.1578C39.5433 20.9528 39.2783 20.7968 38.9818 20.6943C38.7527 20.6185 38.5102 20.574 38.2541 20.574H38.1957H38.1508H37.4546H34.9436H24.8639C23.6242 20.574 22.618 21.5722 22.618 22.8022V23.9119V24.6027V25.2934V27.7624C22.618 28.9924 23.6242 29.9906 24.8639 29.9906H38.1957H38.2541C38.5102 29.9906 38.7527 29.9461 38.9818 29.8703C39.2783 29.7723 39.5433 29.6118 39.7679 29.4068C40.2171 29.0013 40.5001 28.413 40.5001 27.7624V22.8022C40.5001 22.1516 40.2171 21.5633 39.7679 21.1578ZM29.5534 25.7257C29.5534 26.3407 29.0503 26.8399 28.4304 26.8399H27.6848C27.0649 26.8399 26.5618 26.3407 26.5618 25.7257V24.9859C26.5618 24.6294 26.728 24.313 26.993 24.1125C27.1862 23.9654 27.4243 23.8718 27.6848 23.8718H27.8735H28.4304C29.0503 23.8718 29.5534 24.3709 29.5534 24.9859V25.7257Z" fill="#4A56E2"/>
<path d="M91.3401 9.94L85.8501 31H79.6401L76.2801 17.14L72.8001 31H66.5901L61.2501 9.94H66.7401L69.7701 25.27L73.5201 9.94H79.1601L82.7601 25.27L85.8201 9.94H91.3401ZM92.8928 22.6C92.8928 20.88 93.2128 19.37 93.8528 18.07C94.5128 16.77 95.4028 15.77 96.5228 15.07C97.6428 14.37 98.8928 14.02 100.273 14.02C101.453 14.02 102.483 14.26 103.363 14.74C104.263 15.22 104.953 15.85 105.433 16.63V14.26H110.563V31H105.433V28.63C104.933 29.41 104.233 30.04 103.333 30.52C102.453 31 101.423 31.24 100.243 31.24C98.8828 31.24 97.6428 30.89 96.5228 30.19C95.4028 29.47 94.5128 28.46 93.8528 27.16C93.2128 25.84 92.8928 24.32 92.8928 22.6ZM105.433 22.63C105.433 21.35 105.073 20.34 104.353 19.6C103.653 18.86 102.793 18.49 101.773 18.49C100.753 18.49 99.8828 18.86 99.1628 19.6C98.4628 20.32 98.1128 21.32 98.1128 22.6C98.1128 23.88 98.4628 24.9 99.1628 25.66C99.8828 26.4 100.753 26.77 101.773 26.77C102.793 26.77 103.653 26.4 104.353 25.66C105.073 24.92 105.433 23.91 105.433 22.63ZM119.404 8.8V31H114.274V8.8H119.404ZM128.252 8.8V31H123.122V8.8H128.252ZM147.749 22.36C147.749 22.84 147.719 23.34 147.659 23.86H136.049C136.129 24.9 136.459 25.7 137.039 26.26C137.639 26.8 138.369 27.07 139.229 27.07C140.509 27.07 141.399 26.53 141.899 25.45H147.359C147.079 26.55 146.569 27.54 145.829 28.42C145.109 29.3 144.199 29.99 143.099 30.49C141.999 30.99 140.769 31.24 139.409 31.24C137.769 31.24 136.309 30.89 135.029 30.19C133.749 29.49 132.749 28.49 132.029 27.19C131.309 25.89 130.949 24.37 130.949 22.63C130.949 20.89 131.299 19.37 131.999 18.07C132.719 16.77 133.719 15.77 134.999 15.07C136.279 14.37 137.749 14.02 139.409 14.02C141.029 14.02 142.469 14.36 143.729 15.04C144.989 15.72 145.969 16.69 146.669 17.95C147.389 19.21 147.749 20.68 147.749 22.36ZM142.499 21.01C142.499 20.13 142.199 19.43 141.599 18.91C140.999 18.39 140.249 18.13 139.349 18.13C138.489 18.13 137.759 18.38 137.159 18.88C136.579 19.38 136.219 20.09 136.079 21.01H142.499ZM159.786 26.65V31H157.176C155.316 31 153.866 30.55 152.826 29.65C151.786 28.73 151.266 27.24 151.266 25.18V18.52H149.226V14.26H151.266V10.18H156.396V14.26H159.756V18.52H156.396V25.24C156.396 25.74 156.516 26.1 156.756 26.32C156.996 26.54 157.396 26.65 157.956 26.65H159.786Z" fill="black"/>
</svg>
